<svg xmlns="http://www.w3.org/2000/svg" width="512" height="512" viewBox="0 0 512 512" role="img" aria-labelledby="title"><title id="title">Ema galvoja</title><style>
svg{overflow:visible}.head{transform-origin:256px 332px}.eyes{transform-box:fill-box;transform-origin:center}.blink{animation:blink 5.8s linear infinite}.wave-arm{transform-origin:360px 364px;animation:wave 1.9s cubic-bezier(.45,0,.25,1) infinite}.listen-head{animation:nod 2.2s cubic-bezier(.45,0,.25,1) infinite}.talk-mouth{transform-origin:256px 297px;animation:talk .65s cubic-bezier(.45,0,.25,1) infinite}.talk-hand{transform-origin:364px 397px;animation:gesture 1.9s cubic-bezier(.45,0,.25,1) infinite}.think-dot{animation:think 1.8s linear infinite}.think-dot.d2{animation-delay:-1.2s}.think-dot.d3{animation-delay:-.6s}.happy-arm-r{transform-origin:354px 359px;animation:cheer-r 1.7s cubic-bezier(.45,0,.25,1) infinite}.happy-arm-l{transform-origin:157px 359px;animation:cheer-l 1.7s cubic-bezier(.45,0,.25,1) infinite}.confetti{animation:confetti 2s cubic-bezier(.2,.7,.35,1) infinite;transform-origin:center}.encourage-hand{transform-origin:364px 390px;animation:encourage 2.2s cubic-bezier(.45,0,.25,1) infinite}
@keyframes blink{0%,44%,48%,100%{transform:scaleY(1)}46%{transform:scaleY(.09)}}
@keyframes wave{0%,12%,100%{transform:rotate(0deg)}30%,66%{transform:rotate(12deg)}48%,82%{transform:rotate(-8deg)}}
@keyframes nod{0%,100%{transform:rotate(-7deg)}45%{transform:rotate(-3deg) translateY(3px)}}
@keyframes talk{0%,100%{transform:scaleY(.45)}25%,72%{transform:scaleY(1)}50%{transform:scaleY(.25)}}
@keyframes gesture{0%,100%{transform:rotate(0deg)}50%{transform:rotate(-5deg)}}
@keyframes think{0%,100%{opacity:.35}45%,65%{opacity:1}}
@keyframes cheer-r{0%,100%{transform:rotate(0deg)}45%{transform:rotate(-6deg)}}
@keyframes cheer-l{0%,100%{transform:rotate(0deg)}45%{transform:rotate(6deg)}}
@keyframes confetti{0%,100%{transform:translateY(-3px);opacity:.4}50%{transform:translateY(7px);opacity:1}}
@keyframes encourage{0%,100%{transform:translateY(0)}42%{transform:translateY(-5px)}}
@media(prefers-reduced-motion:reduce){*{animation:none!important}}
</style><path d="M129 467 Q118 386 161 345 Q153 325 149 285 Q123 273 139 233 Q120 188 144 158 Q141 134 163 118 Q171 87 204 91 Q226 65 257 82 Q288 76 307 99 Q342 97 354 128 Q389 141 377 180 Q390 207 373 233 Q395 276 367 287 Q363 318 348 345 Q389 375 395 467Z" fill="#fff7f0" stroke="#fff7f0" stroke-width="14" stroke-linecap="round" stroke-linejoin="round" /><path d="M178 345 Q201 330 229 329 L283 329 Q319 331 341 345 Q383 371 386 443 L389 467 L122 467 Q122 382 178 345Z" fill="#5b4fd6" stroke="#332439" stroke-width="7" stroke-linecap="round" stroke-linejoin="round" /><path d="M222 333 L223 319 L287 319 L288 333 Q285 363 256 365 Q226 363 222 333Z" fill="#f0bc94" stroke="#332439" stroke-width="5" stroke-linecap="round" stroke-linejoin="round" /><path d="M218 350 Q253 391 294 350" fill="none" stroke="#8f82ed" stroke-width="7" stroke-linecap="round" stroke-linejoin="round" /><path d="M161 407 L160 458 M351 407 L352 458" fill="none" stroke="#463aab" stroke-width="5" stroke-linecap="round" stroke-linejoin="round" /><path d="M313 405h23q7 0 7 7v14q0 7-7 7h-10l-8 7v-7h-5q-7 0-7-7v-14q0-7 7-7" fill="#f5b100"/><circle cx="317" cy="419" r="2.5" fill="#332439"/><circle cx="329" cy="419" r="2.5" fill="#332439"/><path d="M350 422 Q313 444 281 357" fill="none" stroke="#332439" stroke-width="48" stroke-linecap="round" stroke-linejoin="round" /><path d="M350 422 Q313 444 281 357" fill="none" stroke="#5b4fd6" stroke-width="38" stroke-linecap="round" stroke-linejoin="round" /><ellipse cx="270" cy="329" rx="18" ry="29" transform="rotate(-30 270 329)" fill="#f0bc94" stroke="#332439" stroke-width="5"/><path d="M249 319 Q260 315 271 315" fill="none" stroke="#d29472" stroke-width="3" stroke-linecap="round" stroke-linejoin="round" /><g class="head "><ellipse cx="153" cy="253" rx="15" ry="23" fill="#f0bc94" stroke="#332439" stroke-width="5"/><ellipse cx="359" cy="253" rx="15" ry="23" fill="#f0bc94" stroke="#332439" stroke-width="5"/><path d="M151 215 Q151 137 256 133 Q361 136 361 216 L359 256 Q356 338 256 344 Q158 338 153 261 Z" fill="#f0bc94" stroke="#332439" stroke-width="6" stroke-linecap="round" stroke-linejoin="round" /><circle cx="162" cy="172" r="26" fill="#4b3043" stroke="#332439" stroke-width="5"/><circle cx="184" cy="140" r="28" fill="#4b3043" stroke="#332439" stroke-width="5"/><circle cx="218" cy="119" r="30" fill="#4b3043" stroke="#332439" stroke-width="5"/><circle cx="257" cy="113" r="30" fill="#4b3043" stroke="#332439" stroke-width="5"/><circle cx="294" cy="124" r="31" fill="#4b3043" stroke="#332439" stroke-width="5"/><circle cx="329" cy="148" r="28" fill="#4b3043" stroke="#332439" stroke-width="5"/><circle cx="352" cy="181" r="24" fill="#4b3043" stroke="#332439" stroke-width="5"/><path d="M172 170 Q173 151 190 154 M214 119 Q233 111 235 128 M279 117 Q298 118 301 134 M330 164 Q344 171 339 184" fill="none" stroke="#805262" stroke-width="5" stroke-linecap="round" stroke-linejoin="round" /><path d="M187 200 Q204 191 221 199 M289 199 Q305 190 324 200" fill="none" stroke="#332439" stroke-width="5" stroke-linecap="round" stroke-linejoin="round" /><g class="eyes blink"><ellipse cx="209" cy="247" rx="6.5" ry="10" fill="#332439"/><ellipse cx="303" cy="247" rx="6.5" ry="10" fill="#332439"/></g><circle cx="207" cy="246" r="39" fill="#fff" fill-opacity=".16" stroke="#332439" stroke-width="8"/><circle cx="305" cy="246" r="39" fill="#fff" fill-opacity=".16" stroke="#332439" stroke-width="8"/><path d="M246 244 Q256 237 266 244 M168 235 L157 233 M344 235 L356 233" fill="none" stroke="#332439" stroke-width="6" stroke-linecap="round" stroke-linejoin="round" /><path d="M255 254 L249 274 Q255 279 263 273" fill="none" stroke="#cf8c68" stroke-width="4" stroke-linecap="round" stroke-linejoin="round" /><ellipse cx="184" cy="282" rx="15" ry="7" fill="#e99587"/><ellipse cx="328" cy="282" rx="15" ry="7" fill="#e99587"/><path d="M238 295 Q256 312 277 292" fill="none" stroke="#332439" stroke-width="6" stroke-linecap="round" stroke-linejoin="round" /></g><path d="M363 78 H449 Q466 78 466 95 V126 Q466 144 449 144 H404 L385 159 V144 H363 Q345 144 345 126 V96 Q345 78 363 78Z" fill="#fff9eb" stroke="#332439" stroke-width="5" stroke-linecap="round" stroke-linejoin="round" /><circle class="think-dot d1" cx="378" cy="110" r="6" fill="#5b4fd6"/><circle class="think-dot d2" cx="404" cy="110" r="6" fill="#5b4fd6"/><circle class="think-dot d3" cx="430" cy="110" r="6" fill="#5b4fd6"/></svg>