<svg xmlns="http://www.w3.org/2000/svg" width="640" height="200" viewBox="0 0 640 200" role="img" aria-labelledby="title"><title id="title">Kalbėk! — a2plus lygio iliustracija</title><rect x="4" y="4" width="632" height="192" rx="28" fill="#d9632b" fill-opacity=".08"/><path d="M35 173 H606" stroke="#d9632b" stroke-opacity=".25" stroke-width="4" stroke-linecap="round"/><path d="M64 173V86H118V59H169V173 M510 173V60H556V85H600V173" fill="#d9632b" fill-opacity=".25"/><path d="M84 111 H96 M132 87 H147 M528 90 H540 M569 119 H582" fill="none" stroke="#d9632b" stroke-width="7" stroke-linecap="round" stroke-linejoin="round" /><circle cx="270" cy="86" r="23" fill="#f0bc94" stroke="#332439" stroke-width="4"/><path d="M239 166V135Q239 112 270 112Q301 112 301 135V166Z" fill="#d9632b"/><circle cx="363" cy="86" r="23" fill="#f0bc94" stroke="#332439" stroke-width="4"/><path d="M332 166V135Q332 112 363 112Q394 112 394 135V166Z" fill="#5b4fd6"/><path d="M221 36 H282 Q295 36 295 49 V62 Q295 73 282 73 H256 L244 84 V73 H221 Q209 73 209 62 V49 Q209 36 221 36" fill="#fff9ef" stroke="#d9632b" stroke-width="4" stroke-linecap="round" stroke-linejoin="round" /><path d="M363 31 H424 Q437 31 437 44 V57 Q437 68 424 68 H399 L386 79 V68 H363 Q351 68 351 57 V44 Q351 31 363 31" fill="#fff9ef" stroke="#5b4fd6" stroke-width="4" stroke-linecap="round" stroke-linejoin="round" /><circle cx="234" cy="55" r="3" fill="#d9632b"/><circle cx="250" cy="55" r="3" fill="#d9632b"/><circle cx="266" cy="55" r="3" fill="#d9632b"/></svg>