<svg xmlns="http://www.w3.org/2000/svg" width="640" height="200" viewBox="0 0 640 200" role="img" aria-labelledby="title"><title id="title">Kalbėk! — b1 lygio iliustracija</title><rect x="4" y="4" width="632" height="192" rx="28" fill="#c23b7a" fill-opacity=".08"/><path d="M35 173 H606" stroke="#c23b7a" stroke-opacity=".25" stroke-width="4" stroke-linecap="round"/><rect x="210" y="48" width="164" height="80" rx="8" fill="#fff9ef" stroke="#c23b7a" stroke-width="4"/><path d="M236 105 L266 86 L290 93 L344 67" fill="none" stroke="#c23b7a" stroke-width="6" stroke-linecap="round" stroke-linejoin="round" /><rect x="237" y="134" width="115" height="14" rx="6" fill="#c23b7a"/><path d="M253 148 V175 M335 148 V175" stroke="#c23b7a" stroke-width="5"/><circle cx="159" cy="93" r="24" fill="#f0bc94" stroke="#332439" stroke-width="4"/><path d="M128 166V143Q128 119 159 119Q190 119 190 143V166Z" fill="#c23b7a"/><circle cx="426" cy="93" r="24" fill="#f0bc94" stroke="#332439" stroke-width="4"/><path d="M395 166V143Q395 119 426 119Q457 119 457 143V166Z" fill="#c23b7a"/><path d="M451 52 H511 Q525 52 525 66 V86 Q525 98 511 98 H482 L470 110 V98 H451 Q438 98 438 86 V66 Q438 52 451 52" fill="#fff9ef" stroke="#c23b7a" stroke-width="4" stroke-linecap="round" stroke-linejoin="round" /><path d="M461 71 H500 M461 82 H487" fill="none" stroke="#c23b7a" stroke-width="4" stroke-linecap="round" stroke-linejoin="round" /></svg>